<?xml version="1.0" encoding="utf-8"?>
<!-- Generator: Adobe Illustrator 19.2.1, SVG Export Plug-In . SVG Version: 6.00 Build 0)  -->
<svg version="1.1" xmlns="http://www.w3.org/2000/svg" xmlns:xlink="http://www.w3.org/1999/xlink" x="0px" y="0px"
	 viewBox="0 0 590 205" style="enable-background:new 0 0 590 205;" xml:space="preserve">
<style type="text/css">
	.st0{fill:#FFFFFF;}
	.st1{fill-rule:evenodd;clip-rule:evenodd;fill:#FFFFFF;}
	.st2{display:none;}
	.st3{display:inline;fill:#33547D;}
	.st4{font-family:'Bryant-MediumAlternate';}
	.st5{font-size:140px;}
	.st6{letter-spacing:-8;}
</style>
<g id="Background_xA0_Image_1_">
</g>
<g id="logo_copy_2_1_">
	<g id="outlined">
		<g>
			<circle class="st0" cx="67.5" cy="162.5" r="21.5"/>
			<circle class="st1" cx="145.1" cy="162.7" r="15.2"/>
			<circle class="st1" cx="209.1" cy="162.7" r="6.9"/>
		</g>
		<g>
			<path class="st0" d="M141,117.5c-3.8,0-6.6-2.9-6.6-6.6v-28c0-9.7-4.6-17.1-15-17.1c-10.4,0-16.7,8-16.7,17.2v27.9
				c0,3.6-2.5,6.6-6.6,6.6c-3.9,0-6.6-2.9-6.6-6.6v-28c0-9.7-5-17.1-15.4-17.1C63.6,65.8,58,73.8,58,83v27.9c0,3.6-2.7,6.6-6.6,6.6
				c-3.8,0-6.6-2.9-6.6-6.6V61.2c0-3.9,2.5-6.7,6.6-6.7c4.5,0,6.6,3.1,6.6,6.7v4.5c3.8-7.4,11.5-11.8,19.7-11.8
				c10.1,0,17.6,5,21.4,12.5c5.5-8.4,13.4-12.5,23.4-12.5c16.9,0,25.1,11.6,25.1,28v29C147.6,114.5,144.9,117.5,141,117.5z"/>
			<path class="st0" d="M166.1,29.5c4.2,0,7.7,3.5,7.7,7.7s-3.5,7.7-7.7,7.7c-4.2,0-7.7-3.5-7.7-7.7S161.9,29.5,166.1,29.5z
				 M166.1,117.5c-3.9,0-6.6-2.9-6.6-6.6V61c0-3.6,2.8-6.6,6.6-6.6c3.8,0,6.6,2.9,6.6,6.6v49.8C172.7,114.5,170,117.5,166.1,117.5z"
				/>
			<path class="st0" d="M209.8,77.1l16.7-20.7c1.1-1.3,2.5-2,4.3-2c3.6,0,6,2.4,6,5.7c0,1.3-0.4,2.5-1.5,3.8l-18.3,21.8l18.6,22
				c1,1.1,1.5,2.2,1.5,3.9c0,3.2-2.8,5.7-5.9,5.7c-2,0-3.5-0.7-4.6-2.1l-16.8-20.9L193,115.4c-1.1,1.4-2.7,2.1-4.6,2.1
				c-3.1,0-5.9-2.5-5.9-5.7c0-1.7,0.6-2.8,1.5-3.9l18.6-22L184.3,64c-1.1-1.3-1.5-2.5-1.5-3.8c0-3.4,2.4-5.7,6-5.7
				c1.8,0,3.2,0.7,4.3,2L209.8,77.1z"/>
			<path class="st0" d="M281.6,118c-9.4,0-17.1-4.9-21.6-12v31.1c0,3.6-2.7,6.6-6.6,6.6c-3.9,0-6.6-2.9-6.6-6.6V61
				c0-3.6,2.2-6.6,6.3-6.6c4.1,0,6.4,3.1,6.4,6.7v4.8c4.2-7.3,12.6-12,22-12c16.1,0,29.3,13.4,29.3,32.1
				C310.8,105.3,297.7,118,281.6,118z M278.9,64.8c-11.3,0-18.9,9.9-18.9,21.1s7.6,21.1,18.9,21.1c11.3,0,18.8-8.5,18.8-21.1
				S290.3,64.8,278.9,64.8z"/>
			<path class="st0" d="M380.3,110.9c0,3.6-2.5,6.6-6.6,6.6c-3.9,0-6.4-2.9-6.4-6.6v-3.1c-3.9,5.9-11.3,10.2-20.4,10.2
				c-19.6,0-30.9-14.3-30.9-32.1c0-17.5,12.6-32.1,32.3-32.1c20.2,0,32.1,13.2,32.1,32.1V110.9z M348.1,65.1c-11.2,0-19,9.4-19,20.9
				c0,12,6.6,20.9,19,20.9c11.6,0,19-9.9,19-20.9C367.1,73.1,359.3,65.1,348.1,65.1z"/>
			<path class="st0" d="M419.9,53.9c16.9,0,29.4,12.9,29.4,29.3v27.7c0,3.6-2.9,6.6-6.6,6.6c-3.6,0-6.6-2.9-6.6-6.6V81.6
				c0-8.8-7-15.7-16.2-15.7c-9.2,0-16.1,6.9-16.1,15.7v29.3c0,3.6-2.9,6.6-6.6,6.6c-3.6,0-6.6-2.9-6.6-6.6V83.2
				C390.6,66.8,403,53.9,419.9,53.9z"/>
			<path class="st0" d="M517.7,86.1c0,2.2-1.3,4.5-5,4.5h-41.9c0.7,9.7,7.3,16.9,18.9,16.9c7.3,0,11.6-2.5,16.2-6.9
				c1.1-1.1,2.7-2.1,4.3-2.1c2.9,0,5.5,2.1,5.5,5.5c0,1.4-0.7,2.7-1.7,3.8c-5.3,6.2-14.8,10.2-24.9,10.2
				c-20.9,0-31.9-14.6-31.9-32.1c0-18.3,13.3-32.1,31.4-32.1C506.3,53.9,517.7,68.2,517.7,86.1z M488.6,64.4
				c-9.7,0-16.2,6.9-17.5,15.5h34.4C504.4,71.5,498.1,64.4,488.6,64.4z"/>
			<path class="st0" d="M533.1,117.5c-3.9,0-6.6-2.9-6.6-6.6V28.6c0-3.6,2.7-6.6,6.6-6.6c3.9,0,6.6,2.9,6.6,6.6v82.3
				C539.7,114.5,537.1,117.5,533.1,117.5z"/>
		</g>
	</g>
	<g id="open_text" class="st2">
		<text transform="matrix(1 0 0 1 34.333 116.334)" class="st3 st4 st5 st6">mixpanel</text>
	</g>
</g>
</svg>
